<svg xmlns="http://www.w3.org/2000/svg" width="1200" height="630" viewBox="0 0 1200 630" role="img" aria-labelledby="title desc">
  <title id="title">CSUD3, Magic Formula e serviços digitais</title>
  <desc id="desc">Visual IA em Loop para CSUD3 com ranking Magic Formula, carteira real, IA operacional e disciplina de valuation.</desc>
  <defs>
    <linearGradient id="bg" x1="0" y1="0" x2="1" y2="1">
      <stop offset="0" stop-color="#06080D"/>
      <stop offset="0.55" stop-color="#102334"/>
      <stop offset="1" stop-color="#2b2418"/>
    </linearGradient>
    <linearGradient id="gold" x1="0" y1="0" x2="1" y2="0">
      <stop offset="0" stop-color="#6EE4EF"/>
      <stop offset="1" stop-color="#E4D17F"/>
    </linearGradient>
    <filter id="glow" x="-20%" y="-20%" width="140%" height="140%">
      <feGaussianBlur stdDeviation="8" result="blur"/>
      <feMerge><feMergeNode in="blur"/><feMergeNode in="SourceGraphic"/></feMerge>
    </filter>
  </defs>
  <rect width="1200" height="630" fill="url(#bg)"/>
  <circle cx="1005" cy="120" r="210" fill="#6EE4EF" opacity="0.07"/>
  <circle cx="185" cy="540" r="240" fill="#E4D17F" opacity="0.08"/>
  <g opacity="0.32" stroke="#6EE4EF" stroke-width="2" fill="none">
    <path d="M148 165h170v80H148zM188 245v58h90v-58M233 303v52"/>
    <path d="M882 395h150v72H882zM915 467v48h84v-48M957 515v42"/>
    <path d="M420 150c85-45 185-45 270 0M430 488c90 55 220 55 310-6" stroke-dasharray="9 11"/>
  </g>
  <text x="74" y="92" font-family="Inter, Arial, sans-serif" font-size="26" font-weight="700" fill="#E4D17F">IA em Loop • 18/05/2026</text>
  <text x="74" y="167" font-family="Inter, Arial, sans-serif" font-size="70" font-weight="800" fill="url(#gold)" filter="url(#glow)">CSUD3</text>
  <text x="74" y="220" font-family="Inter, Arial, sans-serif" font-size="34" font-weight="700" fill="#ffffff">serviços digitais, IA e margem</text>
  <text x="74" y="268" font-family="Inter, Arial, sans-serif" font-size="24" fill="#cbd5e1">A pergunta: tecnologia barata ou empresa que precisa provar escala?</text>
  <g transform="translate(74 330)">
    <rect x="0" y="0" width="315" height="132" rx="18" fill="rgba(6,8,13,.55)" stroke="#E4D17F" stroke-opacity=".28"/>
    <text x="24" y="42" font-family="Inter, Arial" font-size="18" font-weight="700" fill="#94a3b8">Magic Formula</text>
    <text x="24" y="82" font-family="Inter, Arial" font-size="36" font-weight="800" fill="#E4D17F">9º lugar</text>
    <text x="24" y="113" font-family="Inter, Arial" font-size="18" fill="#cbd5e1">ROIC 20,5% • EY 16,5%</text>
  </g>
  <g transform="translate(442 330)">
    <rect x="0" y="0" width="315" height="132" rx="18" fill="rgba(6,8,13,.55)" stroke="#6EE4EF" stroke-opacity=".25"/>
    <text x="24" y="42" font-family="Inter, Arial" font-size="18" font-weight="700" fill="#94a3b8">Carteira real</text>
    <text x="24" y="82" font-family="Inter, Arial" font-size="36" font-weight="800" fill="#6EE4EF">3 ações</text>
    <text x="24" y="113" font-family="Inter, Arial" font-size="18" fill="#cbd5e1">R$ 57,42 • 7,6% da carteira</text>
  </g>
  <g transform="translate(810 330)">
    <rect x="0" y="0" width="315" height="132" rx="18" fill="rgba(6,8,13,.55)" stroke="#E4D17F" stroke-opacity=".28"/>
    <text x="24" y="42" font-family="Inter, Arial" font-size="18" font-weight="700" fill="#94a3b8">Fotografia de preço</text>
    <text x="24" y="82" font-family="Inter, Arial" font-size="36" font-weight="800" fill="#E4D17F">R$ 16,90</text>
    <text x="24" y="113" font-family="Inter, Arial" font-size="18" fill="#cbd5e1">P/L 6,94 • ROE 21,3%</text>
  </g>
  <g transform="translate(74 514)" font-family="Inter, Arial" font-size="20" fill="#cbd5e1">
    <text>IA operacional: atendimento, antifraude, dados, automação e eficiência — só vale se virar margem e caixa recorrente.</text>
  </g>
</svg>
