<svg xmlns="http://www.w3.org/2000/svg" width="1200" height="675" viewBox="0 0 1200 675" role="img" aria-labelledby="title desc">
<title id="title">Magic Formula: qualidade versus preço</title>
<desc id="desc">Dispersão do ranking Magic Formula IA em Loop com earnings yield e ROIC.</desc>
<defs><linearGradient id="bg" x1="0" y1="0" x2="1" y2="1"><stop offset="0" stop-color="#07111f"/><stop offset="1" stop-color="#14253a"/></linearGradient></defs>
<rect width="1200" height="675" rx="28" fill="url(#bg)"/>
<text x="60" y="70" font-family="Inter,Arial" font-size="38" font-weight="800" fill="#E4D17F">Magic Formula: qualidade x preço</text>
<text x="60" y="106" font-family="Inter,Arial" font-size="18" fill="#cbd5e1">Earnings yield no eixo horizontal; ROIC no vertical. Quanto mais acima e à direita, melhor a combinação quantitativa.</text>
<rect x="110" y="120" width="940" height="430" fill="#0b1624" stroke="#28435e" rx="12"/>
<line x1="110.0" y1="120" x2="110.0" y2="550" stroke="#24384f" stroke-width="1"/><text x="98.0" y="584" fill="#94a3b8" font-family="Inter,Arial" font-size="14">0%</text><line x1="345.0" y1="120" x2="345.0" y2="550" stroke="#24384f" stroke-width="1"/><text x="333.0" y="584" fill="#94a3b8" font-family="Inter,Arial" font-size="14">40%</text><line x1="580.0" y1="120" x2="580.0" y2="550" stroke="#24384f" stroke-width="1"/><text x="568.0" y="584" fill="#94a3b8" font-family="Inter,Arial" font-size="14">80%</text><line x1="815.0" y1="120" x2="815.0" y2="550" stroke="#24384f" stroke-width="1"/><text x="803.0" y="584" fill="#94a3b8" font-family="Inter,Arial" font-size="14">120%</text><line x1="1050.0" y1="120" x2="1050.0" y2="550" stroke="#24384f" stroke-width="1"/><text x="1038.0" y="584" fill="#94a3b8" font-family="Inter,Arial" font-size="14">160%</text><line x1="110" y1="550.0" x2="1050" y2="550.0" stroke="#24384f" stroke-width="1"/><text x="42" y="555.0" fill="#94a3b8" font-family="Inter,Arial" font-size="14">0%</text><line x1="110" y1="442.5" x2="1050" y2="442.5" stroke="#24384f" stroke-width="1"/><text x="42" y="447.5" fill="#94a3b8" font-family="Inter,Arial" font-size="14">20%</text><line x1="110" y1="335.0" x2="1050" y2="335.0" stroke="#24384f" stroke-width="1"/><text x="42" y="340.0" fill="#94a3b8" font-family="Inter,Arial" font-size="14">40%</text><line x1="110" y1="227.5" x2="1050" y2="227.5" stroke="#24384f" stroke-width="1"/><text x="42" y="232.5" fill="#94a3b8" font-family="Inter,Arial" font-size="14">60%</text><line x1="110" y1="120.0" x2="1050" y2="120.0" stroke="#24384f" stroke-width="1"/><text x="42" y="125.0" fill="#94a3b8" font-family="Inter,Arial" font-size="14">80%</text>
<circle cx="1042.5" cy="133.8" r="11" fill="#E4D17F" stroke="#07111f" stroke-width="3"/><text x="1057.5" y="161.8" fill="#ffffff" font-family="Inter,Arial" font-size="16" font-weight="700">PSSA3</text><circle cx="357.9" cy="359.4" r="11" fill="#6EE4EF" stroke="#07111f" stroke-width="3"/><text x="372.9" y="345.4" fill="#ffffff" font-family="Inter,Arial" font-size="16" font-weight="700">WIZC3</text><circle cx="250.9" cy="392.7" r="11" fill="#AA8451" stroke="#07111f" stroke-width="3"/><text x="265.9" y="378.7" fill="#ffffff" font-family="Inter,Arial" font-size="16" font-weight="700">PLPL3</text><circle cx="328.4" cy="446.1" r="11" fill="#ffffff" stroke="#07111f" stroke-width="3"/><text x="343.4" y="432.1" fill="#ffffff" font-family="Inter,Arial" font-size="16" font-weight="700">QUAL3</text><circle cx="258.4" cy="454.1" r="11" fill="#22c55e" stroke="#07111f" stroke-width="3"/><text x="273.4" y="440.1" fill="#ffffff" font-family="Inter,Arial" font-size="16" font-weight="700">PETR4</text><circle cx="225.2" cy="406.6" r="11" fill="#f97316" stroke="#07111f" stroke-width="3"/><text x="240.2" y="392.6" fill="#ffffff" font-family="Inter,Arial" font-size="16" font-weight="700">CMIN3</text><circle cx="253.3" cy="454.1" r="11" fill="#a78bfa" stroke="#07111f" stroke-width="3"/><text x="268.3" y="440.1" fill="#ffffff" font-family="Inter,Arial" font-size="16" font-weight="700">PETR3</text><circle cx="202.7" cy="362.7" r="11" fill="#38bdf8" stroke="#07111f" stroke-width="3"/><text x="217.7" y="348.7" fill="#ffffff" font-family="Inter,Arial" font-size="16" font-weight="700">LEVE3</text><circle cx="206.9" cy="439.7" r="11" fill="#f472b6" stroke="#07111f" stroke-width="3"/><text x="221.9" y="425.7" fill="#ffffff" font-family="Inter,Arial" font-size="16" font-weight="700">CSUD3</text><circle cx="205.4" cy="442.0" r="11" fill="#facc15" stroke="#07111f" stroke-width="3"/><text x="220.4" y="428.0" fill="#ffffff" font-family="Inter,Arial" font-size="16" font-weight="700">POMO3</text><circle cx="233.4" cy="469.2" r="11" fill="#34d399" stroke="#07111f" stroke-width="3"/><text x="248.4" y="455.2" fill="#ffffff" font-family="Inter,Arial" font-size="16" font-weight="700">VTRU3</text><circle cx="229.2" cy="470.3" r="11" fill="#fb7185" stroke="#07111f" stroke-width="3"/><text x="244.2" y="456.3" fill="#ffffff" font-family="Inter,Arial" font-size="16" font-weight="700">CSED3</text>
<text x="500" y="632" fill="#94a3b8" font-family="Inter,Arial" font-size="16">Earnings yield</text>
<text x="20" y="350" fill="#94a3b8" font-family="Inter,Arial" font-size="16" transform="rotate(-90 20 350)">ROIC</text>
<text x="110" y="590" fill="#94a3b8" font-family="Inter,Arial" font-size="15">Fonte: greenblatt_top30_filtered.csv • IA em Loop • outliers pedem checagem fundamentalista antes de qualquer decisão</text>
</svg>